<svg width="32" height="27" viewBox="0 0 32 27" fill="none" xmlns="http://www.w3.org/2000/svg">
<g clip-path="url(#clip0_2015_2)">
<path d="M18.4373 10.5699L14.316 6.46757C14.8616 5.93528 15.5605 5.59466 16.3506 5.49425C17.247 5.38053 18.2673 5.57308 19.3259 6.14008C19.4123 6.18629 19.5114 6.20358 19.6084 6.18938C19.7055 6.17519 19.7954 6.13026 19.8648 6.06126L21.9677 3.96918C22.0533 3.88383 22.1015 3.76811 22.1015 3.64745C22.1015 3.52679 22.0533 3.41106 21.9677 3.32571C19.6882 1.05664 16.8827 -0.00607138 14.0933 8.76489e-05C11.2122 0.00630889 8.35384 1.15512 6.11697 3.29324C5.94753 3.45617 5.8154 3.61954 5.93228 3.8837C6.6274 5.45767 5.01003 7.08235 3.42472 6.40741C3.14378 6.26861 2.96784 6.42389 2.7919 6.59896L0.133841 9.24479C0.0481505 9.33015 1.71661e-05 9.44588 1.71661e-05 9.56655C1.71661e-05 9.68722 0.0481505 9.80296 0.133841 9.88831L5.54847 15.278C5.63422 15.3633 5.75049 15.4112 5.87172 15.4112C5.99294 15.4112 6.10921 15.3633 6.19497 15.278L8.91603 12.5695C8.96088 12.527 8.99657 12.4759 9.02094 12.4193C9.04531 12.3626 9.05785 12.3016 9.05778 12.24L9.05759 12.2399C9.05769 12.1593 9.03622 12.0801 8.9954 12.0105C8.19134 10.4214 9.85334 8.69707 11.4717 9.40256L15.5028 13.4152C15.3803 14.293 15.647 15.2468 16.4961 16.092L26.4722 26.0222C27.5562 27.1013 28.8355 27.1982 29.8971 26.7434C30.3017 26.5701 30.6734 26.3131 30.988 25.9982C31.2997 25.6865 31.5555 25.3149 31.7318 24.9089C32.1982 23.8346 32.1096 22.5395 31.0403 21.4751L21.0643 11.5448C20.2487 10.7331 19.3108 10.4662 18.4373 10.5699Z" fill="#200606"/>
<path fill-rule="evenodd" clip-rule="evenodd" d="M2.8626 7.17206L0.457033 9.56655L5.87166 14.9563L8.27722 12.5618L2.8626 7.17206Z" fill="#787472"/>
<path fill-rule="evenodd" clip-rule="evenodd" d="M6.98735 11.2776L4.58166 13.6722L5.87166 14.9563L8.2771 12.5617L6.98735 11.2776Z" fill="#464544"/>
<path fill-rule="evenodd" clip-rule="evenodd" d="M3.18579 6.85022L3.22116 6.81501C4.92197 7.55938 6.66285 6.15998 6.55066 4.50158L10.8583 8.78951C9.14704 8.67616 7.70866 10.5264 8.60047 12.2399V12.2399L3.18579 6.85022ZM17.9023 10.681L13.6857 6.48373C14.9469 4.93837 17.1771 4.47352 19.542 5.73998L21.6443 3.64747C17.1678 -0.808498 10.5993 -0.420106 6.36991 3.68087L15.6237 12.892C15.6518 12.8057 15.6834 12.7206 15.7185 12.637C15.8905 12.2279 16.1479 11.8543 16.4648 11.5405C16.782 11.2266 17.1582 10.9716 17.5676 10.8005C17.677 10.7548 17.7887 10.7149 17.9023 10.681Z" fill="#787472"/>
<path fill-rule="evenodd" clip-rule="evenodd" d="M13.6857 6.48371C14.9273 5.01463 17.0015 4.44457 19.542 5.73996L21.6442 3.64732C21.2834 3.3026 16.1507 0.732422 11.9215 4.83334L13.6857 6.48371Z" fill="#464544"/>
<path fill-rule="evenodd" clip-rule="evenodd" d="M16.8637 15.726L26.8399 25.6562C29.3821 28.1868 33.1414 24.2984 30.6727 21.8411L20.6965 11.9108C18.1524 9.37841 14.2475 13.1217 16.8637 15.726Z" fill="#F7FF17"/>
</g>
<defs>
<clipPath id="clip0_2015_2">
<rect width="32" height="27" fill="white" transform="matrix(-1 0 0 1 32 0)"/>
</clipPath>
</defs>
</svg>
