<svg width="42" height="43" viewBox="0 0 42 43" fill="none" xmlns="http://www.w3.org/2000/svg">
<g clip-path="url(#clip0_2015_2)">
<path d="M20.6515 17.7045L14.8366 17.7179C14.846 16.9557 15.0993 16.2206 15.587 15.591C16.1405 14.8767 16.998 14.2914 18.1475 13.9438C18.2413 13.9154 18.3236 13.8575 18.3822 13.7789C18.4408 13.7002 18.4726 13.6049 18.4728 13.507L18.4805 10.5407C18.4807 10.4198 18.4329 10.3039 18.3476 10.2186C18.2623 10.1333 18.1464 10.0855 18.0255 10.0857C14.8091 10.0931 12.0739 11.3254 10.1059 13.3021C8.07301 15.3438 6.86421 18.1773 6.79438 21.2709C6.78978 21.5059 6.81188 21.7149 7.0813 21.819C8.6858 22.4404 8.69096 24.7329 7.09272 25.3767C6.79593 25.4772 6.78132 25.7114 6.7807 25.9596L6.77205 29.71C6.77182 29.8309 6.81962 29.9468 6.90495 30.0321C6.99027 30.1175 7.10615 30.1653 7.22709 30.165L14.8669 30.1474C14.9879 30.1471 15.104 30.0988 15.1897 30.013C15.2754 29.9273 15.3237 29.8112 15.3241 29.6903L15.3329 25.851C15.3346 25.7892 15.3237 25.7278 15.3009 25.6705C15.278 25.6133 15.2438 25.5613 15.2002 25.5177L15.2 25.5178C15.1431 25.4608 15.0719 25.4199 14.9938 25.3996C13.3016 24.8445 13.2575 22.45 14.9007 21.8045L20.5885 21.7914C21.1225 22.4988 21.9855 22.9846 23.1836 22.9818L37.2595 22.9494C38.7891 22.9459 39.7622 22.1099 40.1912 21.0376C40.3548 20.6289 40.4359 20.1844 40.4357 19.7393C40.4356 19.2985 40.3538 18.8548 40.1914 18.4431C39.7615 17.3536 38.7831 16.5005 37.2744 16.5039L23.1985 16.5363C22.0478 16.539 21.1959 17.0135 20.6515 17.7045Z" fill="#200606"/>
<path fill-rule="evenodd" clip-rule="evenodd" d="M7.23598 26.3147L7.22815 29.7089L14.868 29.6913L14.8758 26.2971L7.23598 26.3147Z" fill="#787472"/>
<path fill-rule="evenodd" clip-rule="evenodd" d="M13.0557 26.3012L13.0478 29.6955L14.868 29.6913L14.8756 26.2972L13.0557 26.3012Z" fill="#464544"/>
<path fill-rule="evenodd" clip-rule="evenodd" d="M7.237 25.8587L7.23711 25.8087C8.96612 25.1324 9.20757 22.9119 7.95558 21.8186L14.0336 21.8046C12.7434 22.9345 13.0346 25.2599 14.8768 25.8409L14.8769 25.841L7.237 25.8587ZM20.352 18.1613L14.4024 18.1749C14.2015 16.1904 15.4498 14.2847 18.0175 13.508L18.0244 10.5418C11.7082 10.5564 7.33823 15.4756 7.24745 21.3661L20.3042 21.3359C20.263 21.2551 20.2252 21.1725 20.1908 21.0885C20.0232 20.6777 19.941 20.2315 19.9432 19.7855C19.9455 19.3392 20.0312 18.893 20.1998 18.4825C20.2448 18.3728 20.2956 18.2656 20.352 18.1613Z" fill="#787472"/>
<path fill-rule="evenodd" clip-rule="evenodd" d="M14.4023 18.175C14.2414 16.2582 15.305 14.3885 18.0175 13.508L18.0242 10.5419C17.5253 10.5532 12.0785 12.3652 11.9878 18.2555L14.4023 18.175Z" fill="#464544"/>
<path fill-rule="evenodd" clip-rule="evenodd" d="M23.1848 22.4631L37.2608 22.4306C40.8477 22.4223 40.7565 17.0147 37.2732 17.0227L23.1973 17.0551C19.6076 17.0634 19.4933 22.4715 23.1848 22.4631Z" fill="#F7FF17"/>
</g>
<defs>
<clipPath id="clip0_2015_2">
<rect width="32" height="27" fill="white" transform="matrix(-0.707107 0.707107 0.707107 0.707107 22.7678 0.640137)"/>
</clipPath>
</defs>
</svg>
